<?xml version="1.0" encoding="UTF-8" standalone="no"?>
<!DOCTYPE svg PUBLIC "-//W3C//DTD SVG 1.1//EN"
"http://www.w3.org/Graphics/SVG/1.1/DTD/svg11.dtd">
<svg viewBox="0 0 909 1299" version="1.1" xmlns="http://www.w3.org/2000/svg" xmlns:xlink="http://www.w3.org/1999/xlink">
<defs>
<style type="text/css"><![CDATA[
.g1_13{
fill: #C9C4B5;
}
.g2_13{
fill: #999999;
}
.g3_13{
fill: #807A73;
}
.g4_13{
fill: #3C3835;
}
.g5_13{
fill: #241F21;
}
.g6_13{
fill: #A29472;
}
]]></style>
</defs>
<path d="M510.1,623L454,623l-56.1,0l0.6,1l55.5,0l55.5,0ZM340.8,526.2L284.3,624l113,0l-0.6,-1l-110.6,0l55.3,-95.7Zm226.4,0l-0.6,1.1L621.9,623l-110.6,0l-0.6,1l113,0ZM397.9,429.5l-1.2,0l-27.5,47.6l-27.8,48.1l0.6,1l28,-48.6Zm113.4,0l-1.2,0l27.8,48.1L566,526.2l0.6,-1L538.8,477.1ZM454,330.2l-56.7,98.2l1.2,0L454,332.2l55.5,96.2l1.2,0Z" class="g1_13" />
<path d="M510.7,624l-1.2,0L454,720.2L398.5,624l-1.2,0L454,722.3ZM342,526.2l-0.6,1.1l27.8,48.1L396.7,623l1.2,0L370,574.8Zm224,0l-28.1,48.6L510.1,623l1.2,0l27.5,-47.6l27.8,-48.1ZM397.3,428.4l-113,0l56.5,97.8l0.6,-1L286.1,429.5l110.6,0Zm112.2,0l-55.5,0l-55.5,0l-0.6,1.1l56.1,0l56.1,0Zm114.2,0l-113,0l0.6,1.1l110.6,0l-55.3,95.7l0.6,1Z" class="g2_13" />
<path d="M397.9,623l-1.2,0l0.6,1l1.2,0Zm113.4,0l-1.2,0l-0.6,1l1.2,0ZM341.4,525.2l-0.6,1l0.6,1.1l0.6,-1.1Zm225.2,0l-0.6,1l0.6,1.1l0.6,-1.1ZM398.5,428.4l-1.2,0l-0.6,1.1l1.2,0Zm112.2,0l-1.2,0l0.6,1.1l1.2,0Z" class="g3_13" />
<path d="M450,312.8l4.3,-10.9l1.5,0l4.5,10.9l-1.6,0l-1.3,-3.3l-4.6,0l-1.2,3.3Zm3.2,-4.5l3.7,0l-1.1,-3c-0.4,-0.9,-0.6,-1.7,-0.8,-2.3c-0.1,0.7,-0.3,1.4,-0.6,2.1Z" class="g4_13" />
<path d="M258.9,629.4l0,-11l4.1,0c0.8,0,1.5,0.1,2,0.4c0.5,0.2,0.9,0.5,1.2,1c0.3,0.4,0.4,0.9,0.4,1.4c0,0.5,-0.1,0.9,-0.4,1.4c-0.2,0.4,-0.6,0.7,-1.1,1c0.7,0.2,1.2,0.5,1.5,1c0.4,0.4,0.6,1,0.6,1.6c0,0.5,-0.2,1,-0.4,1.5c-0.2,0.4,-0.5,0.7,-0.8,1c-0.3,0.2,-0.7,0.4,-1.2,0.5c-0.5,0.1,-1,0.2,-1.7,0.2Zm1.4,-6.4l2.4,0c0.6,0,1.1,0,1.4,-0.1c0.3,-0.1,0.6,-0.3,0.8,-0.5c0.2,-0.3,0.3,-0.6,0.3,-1c0,-0.4,-0.1,-0.7,-0.3,-1c-0.1,-0.2,-0.4,-0.4,-0.7,-0.5c-0.3,-0.1,-0.9,-0.2,-1.7,-0.2l-2.2,0Zm0,5.1l2.8,0c0.4,0,0.8,0,0.9,0c0.4,-0.1,0.7,-0.2,0.9,-0.3c0.2,-0.2,0.4,-0.4,0.5,-0.7c0.2,-0.2,0.2,-0.5,0.2,-0.9c0,-0.4,-0.1,-0.7,-0.3,-1c-0.2,-0.4,-0.5,-0.6,-0.8,-0.7c-0.4,-0.1,-0.9,-0.2,-1.6,-0.2l-2.6,0Z" class="g4_13" />
<path d="M649.1,626.6l1.5,0.4c-0.3,1.2,-0.9,2.1,-1.7,2.7c-0.8,0.6,-1.7,0.9,-2.9,0.9c-1.1,0,-2.1,-0.2,-2.8,-0.7c-0.8,-0.5,-1.4,-1.2,-1.7,-2.1c-0.4,-0.9,-0.6,-1.9,-0.6,-2.9c0,-1.2,0.2,-2.2,0.6,-3c0.5,-0.9,1.1,-1.5,1.9,-1.9c0.8,-0.5,1.7,-0.7,2.7,-0.7c1.1,0,2,0.3,2.7,0.8c0.8,0.6,1.3,1.4,1.6,2.4l-1.4,0.3c-0.3,-0.8,-0.7,-1.4,-1.1,-1.7c-0.5,-0.4,-1.1,-0.6,-1.9,-0.6c-0.8,0,-1.5,0.2,-2.1,0.6c-0.6,0.4,-0.9,1,-1.2,1.7c-0.2,0.6,-0.3,1.4,-0.3,2.1c0,0.9,0.1,1.7,0.4,2.4c0.3,0.7,0.7,1.2,1.3,1.6c0.5,0.3,1.1,0.5,1.8,0.5c0.8,0,1.5,-0.2,2.1,-0.7c0.5,-0.5,0.9,-1.2,1.1,-2.1Z" class="g4_13" />
<path d="M453.9,715.1l0,6.2l0.1,0.1l0.1,-0.1l0,-6.2L454,715Z" class="g5_13" />
<path d="M453.9,349.6l0,12.2l0.1,0.1l0.1,-0.1l0,-12.2L454,349.5Zm0,24.3l0,12.2l0.1,0.2l0.1,-0.2l0,-12.2L454,373.8Zm0,24.4l0,12.2l0.1,0.1l0.1,-0.1l0,-12.2L454,398.2Zm0,24.4l0,12.2L454,435l0.1,-0.1l0,-12.2L454,422.6Zm0,24.3l0,12.2l0.1,0.2l0.1,-0.2l0,-12.2L454,446.9Zm0,24.4l0,12.2l0.1,0.1l0.1,-0.1l0,-12.2L454,471.3Zm0,24.4l0,12.2l0.1,0.1l0.1,-0.1l0,-12.2L454,495.7Zm0,24.3l0,12.2l0.1,0.2l0.1,-0.2l0,-12.2L454,520Zm0,24.4l0,12.2l0.1,0.1l0.1,-0.1l0,-12.2L454,544.4Zm0,24.4l0,12.2l0.1,0.1l0.1,-0.1l0,-12.2L454,568.8Zm0,24.3l0,12.2l0.1,0.2l0.1,-0.2l0,-12.2L454,593.1Zm0,24.4l0,12.2l0.1,0.1l0.1,-0.1l0,-12.2L454,617.5Zm0,24.4l0,12.2l0.1,0.1l0.1,-0.1l0,-12.2L454,641.9Zm0,24.3l0,12.2l0.1,0.2l0.1,-0.2l0,-12.2L454,666.2Zm0,24.4l0,12.2L454,703l0.1,-0.1l0,-12.2L454,690.6Z" class="g5_13" />
<path d="M453.9,331.2l0,6.2l0.1,0.1l0.1,-0.1l0,-6.2L454,331.1Z" class="g5_13" />
<path d="M622.8,623.4l-5.3,-3.1l-0.2,0.1l0,0.2l5.4,3l0.2,0Z" class="g5_13" />
<path d="M311.7,444.1L301.2,438l-0.2,0l0.1,0.2l10.5,6.1l0.2,0Zm21.1,12.1l-10.5,-6l-0.2,0l0,0.2l10.6,6.1l0.2,-0.1Zm21.1,12.2l-10.5,-6.1l-0.2,0.1l0,0.1l10.6,6.1l0.1,0ZM375,480.5l-10.6,-6l-0.1,0l0,0.2l10.6,6.1l0.1,-0.1Zm21.1,12.2l-10.6,-6.1l-0.2,0.1l0.1,0.1l10.5,6.1l0.2,0Zm21.1,12.2l-10.6,-6.1l-0.2,0l0.1,0.2l10.5,6.1l0.2,-0.1Zm21,12.1l-10.5,-6.1l-0.2,0.1l0.1,0.2l10.5,6l0.2,0Zm21.1,12.2l-10.5,-6.1l-0.2,0l0.1,0.2l10.5,6.1l0.2,-0.1Zm21.1,12.1l-10.5,-6.1l-0.2,0.1l0,0.2l10.6,6l0.2,0Zm21.1,12.2L491,547.4l-0.2,0l0,0.2l10.6,6.1l0.1,0Zm21.1,12.1l-10.6,-6l-0.1,0l0,0.2l10.6,6.1l0.1,-0.1Zm21.1,12.2l-10.6,-6.1l-0.2,0.1l0.1,0.1l10.5,6.1l0.2,0Zm21,12.1l-10.5,-6l-0.2,0l0.1,0.2l10.5,6.1l0.2,-0.1Zm21.1,12.2L575.3,596l-0.2,0.1l0.1,0.1l10.5,6.1l0.2,0Zm21.1,12.2l-10.5,-6.1l-0.2,0l0,0.2l10.6,6.1l0.2,-0.1Z" class="g5_13" />
<path d="M290.6,431.9l-5.3,-3.1l-0.2,0.1l0,0.2l5.4,3l0.2,0Z" class="g5_13" />
<path d="M622.7,428.8l-5.4,3.1l0,0.2l0.2,0l5.3,-3l0.1,-0.2Z" class="g5_13" />
<path d="M311.6,608.2l-10.5,6.1l-0.1,0.1l0.2,0.1l10.5,-6.1l0.1,-0.2ZM332.7,596l-10.6,6.1l0,0.2l0.2,0l10.5,-6.1l0.1,-0.1Zm21.1,-12.1l-10.6,6l0,0.2l0.2,0.1l10.5,-6.1l0,-0.2Zm21.1,-12.2l-10.6,6.1l0,0.2l0.1,0L375,571.9l0,-0.1Zm21,-12.1l-10.5,6l-0.1,0.2l0.2,0.1l10.6,-6.1l0,-0.2ZM417,547.4l-10.5,6.1l-0.1,0.2l0.2,0l10.6,-6.1l0,-0.2Zm21.1,-12.2l-10.5,6.1l-0.1,0.2l0.2,0l10.5,-6l0.1,-0.2Zm21.1,-12.1l-10.5,6.1l-0.1,0.1l0.2,0.1l10.5,-6.1l0.1,-0.2Zm21.1,-12.2L469.7,517l0,0.2l0.2,0l10.5,-6l0.1,-0.2Zm21.1,-12.1l-10.6,6.1l0,0.1l0.2,0.1L501.5,499l0,-0.2Zm21.1,-12.2l-10.6,6.1l0,0.2l0.1,0l10.6,-6.1l0,-0.1Zm21,-12.1l-10.5,6l-0.1,0.2l0.2,0.1l10.6,-6.1l0,-0.2Zm21.1,-12.2l-10.5,6.1l-0.1,0.2l0.2,0l10.5,-6.1l0.1,-0.1Zm21.1,-12.1l-10.5,6l-0.1,0.2l0.2,0.1l10.5,-6.1l0.1,-0.2ZM606.8,438l-10.6,6.1l0,0.2l0.2,0l10.5,-6.1L607,438Z" class="g5_13" />
<path d="M290.5,620.3l-5.4,3.1l0,0.2l0.2,0l5.3,-3l0.1,-0.2Z" class="g5_13" />
<path d="M457.2,742.4c-0.6,0.5,-1.2,0.9,-1.7,1.1c-0.5,0.2,-1.1,0.3,-1.7,0.3c-1.1,0,-1.8,-0.3,-2.4,-0.8c-0.5,-0.5,-0.8,-1.1,-0.8,-1.9c0,-0.4,0.1,-0.9,0.3,-1.2c0.2,-0.4,0.5,-0.7,0.8,-0.9c0.4,-0.3,0.7,-0.4,1.1,-0.6c0.4,0,0.8,-0.1,1.5,-0.2c1.2,-0.1,2.2,-0.3,2.8,-0.5c0,-0.3,0,-0.4,0,-0.4c0,-0.7,-0.2,-1.1,-0.5,-1.4c-0.4,-0.4,-1,-0.5,-1.8,-0.5c-0.7,0,-1.3,0.1,-1.6,0.3c-0.4,0.3,-0.6,0.8,-0.8,1.4l-1.5,-0.2c0.1,-0.6,0.3,-1.2,0.7,-1.6c0.3,-0.4,0.7,-0.7,1.3,-0.9c0.7,-0.2,1.4,-0.3,2.2,-0.3c0.7,0,1.4,0,1.9,0.2c0.5,0.2,0.9,0.5,1.1,0.7c0.2,0.3,0.4,0.7,0.5,1.1c0,0.3,0.1,0.8,0.1,1.5l0,2.1c0,1.4,0,2.4,0.1,2.7c0,0.4,0.2,0.8,0.4,1.2l-1.7,0c-0.2,-0.4,-0.3,-0.7,-0.3,-1.2m-0.1,-3.5c-0.6,0.2,-1.5,0.4,-2.6,0.6c-0.7,0.1,-1.1,0.2,-1.4,0.3c-0.3,0.1,-0.5,0.3,-0.6,0.5c-0.2,0.2,-0.2,0.5,-0.2,0.8c0,0.4,0.1,0.7,0.4,1c0.4,0.3,0.8,0.4,1.4,0.4c0.7,0,1.2,-0.1,1.7,-0.4c0.4,-0.2,0.8,-0.6,1,-1c0.2,-0.4,0.3,-0.9,0.3,-1.6Z" class="g6_13" />
<path d="M266.1,433.9l-1.4,0l0,-12.8l1.5,0l0,4.6c0.7,-0.8,1.6,-1.3,2.6,-1.3c0.6,0,1.1,0.2,1.6,0.4c0.5,0.2,0.9,0.5,1.3,1c0.3,0.4,0.6,0.9,0.7,1.5c0.2,0.6,0.3,1.2,0.3,1.9c0,1.5,-0.4,2.8,-1.2,3.7c-0.7,0.8,-1.7,1.3,-2.8,1.3c-1.1,0,-1.9,-0.5,-2.6,-1.4Zm0,-4.7c0,1.1,0.2,1.9,0.5,2.4c0.5,0.9,1.1,1.3,2,1.3c0.7,0,1.3,-0.3,1.8,-0.9c0.5,-0.6,0.7,-1.5,0.7,-2.7c0,-1.2,-0.2,-2.1,-0.7,-2.7c-0.5,-0.6,-1.1,-0.9,-1.8,-0.9c-0.6,0,-1.2,0.3,-1.7,0.9c-0.5,0.6,-0.8,1.5,-0.8,2.6Z" class="g6_13" />
<path d="M642.3,429.5l1.5,0.2c-0.2,1,-0.6,1.9,-1.3,2.5c-0.7,0.6,-1.6,0.9,-2.6,0.9c-1.2,0,-2.3,-0.4,-3,-1.3c-0.8,-0.8,-1.2,-2,-1.2,-3.6c0,-1,0.2,-1.8,0.5,-2.6c0.3,-0.7,0.8,-1.3,1.5,-1.7c0.7,-0.4,1.4,-0.5,2.2,-0.5c1.1,0,1.9,0.2,2.5,0.7c0.7,0.5,1.1,1.3,1.3,2.2l-1.6,0.2c-0.1,-0.6,-0.4,-1.1,-0.8,-1.4c-0.3,-0.3,-0.8,-0.5,-1.3,-0.5c-0.8,0,-1.4,0.3,-1.9,0.9c-0.5,0.6,-0.8,1.5,-0.8,2.7c0,1.3,0.3,2.2,0.7,2.7c0.5,0.6,1.1,0.9,1.9,0.9c0.6,0,1.2,-0.2,1.6,-0.6c0.4,-0.4,0.6,-1,0.8,-1.7Z" class="g6_13" />
<path d="M287.4,428.9c0,1.2,-1,2.2,-2.2,2.2c-1.2,0,-2.2,-1,-2.2,-2.2c0,-1.2,1,-2.1,2.2,-2.1c1.2,0,2.2,0.9,2.2,2.1Z" class="g6_13" />
<path d="M624.9,428.9c0,1.2,-0.9,2.2,-2.1,2.2c-1.2,0,-2.2,-1,-2.2,-2.2c0,-1.2,1,-2.1,2.2,-2.1c1.2,0,2.1,0.9,2.1,2.1Z" class="g6_13" />
<path d="M287.4,624c0,1.2,-1,2.2,-2.2,2.2c-1.2,0,-2.2,-1,-2.2,-2.2c0,-1.2,1,-2.2,2.2,-2.2c1.2,0,2.2,1,2.2,2.2Z" class="g4_13" />
<path d="M624.9,624c0,1.2,-0.9,2.2,-2.1,2.2c-1.2,0,-2.2,-1,-2.2,-2.2c0,-1.2,1,-2.2,2.2,-2.2c1.2,0,2.1,1,2.1,2.2Z" class="g4_13" />
<path d="M456.2,721.3c0,1.2,-1,2.1,-2.2,2.1c-1.2,0,-2.2,-0.9,-2.2,-2.1c0,-1.2,1,-2.2,2.2,-2.2c1.2,0,2.2,1,2.2,2.2Z" class="g6_13" />
<path d="M456.2,331.2c0,1.2,-1,2.2,-2.2,2.2c-1.2,0,-2.2,-1,-2.2,-2.2c0,-1.2,1,-2.2,2.2,-2.2c1.2,0,2.2,1,2.2,2.2Z" class="g4_13" />
</svg>